<svg width="242" height="252" viewBox="0 0 242 252" fill="none" xmlns="http://www.w3.org/2000/svg">
<path d="M102.78 252H239.221L240.451 227.213H35.1741C33.9449 183.836 71.4355 183.836 117.531 164.73C136.583 157.5 210.335 131.164 223.242 121.352C242.294 107.41 244.138 84.6885 240.451 61.4508C236.763 38.2131 207.877 0 120.604 0C62.8311 0 3.82949 14.459 0.756493 64.5492C0.756493 67.6475 0.756493 91.4016 0.756493 94.5H36.4033C36.4033 91.918 36.4033 68.1639 36.4033 65.582C39.4763 31.5 84.3422 27.3689 121.218 26.8525C166.699 26.3361 203.575 40.7951 206.033 70.7459C206.648 77.9754 207.877 95.5328 194.97 103.795C152.563 131.68 65.2895 146.139 22.2675 172.992C-6.61871 190.033 1.37115 225.664 0.141949 251.484H102.78" fill="#B6A999" fill-opacity="0.25"/>
</svg>
