<svg width="29" height="30" viewBox="0 0 29 30" fill="none" xmlns="http://www.w3.org/2000/svg">
<path d="M1.9375 0.75C1.62256 0.75 1.32051 0.875111 1.09781 1.09781C0.875111 1.32051 0.75 1.62256 0.75 1.9375C0.75 2.25244 0.875111 2.55449 1.09781 2.77719C1.32051 2.99989 1.62256 3.125 1.9375 3.125H2.52175C2.77961 3.12545 3.03031 3.20981 3.23598 3.36535C3.44164 3.52088 3.5911 3.73914 3.66175 3.98712L7.4285 17.1684C7.64154 17.9122 8.09098 18.5665 8.70887 19.0323C9.32675 19.4981 10.0795 19.75 10.8532 19.75H21.7046C22.4168 19.7501 23.1126 19.5368 23.7023 19.1376C24.292 18.7384 24.7486 18.1716 25.013 17.5104L28.5137 8.75612C28.6577 8.3959 28.7112 8.00591 28.6695 7.62023C28.6279 7.23456 28.4925 6.86495 28.275 6.54371C28.0576 6.22248 27.7648 5.95939 27.4222 5.77744C27.0796 5.5955 26.6977 5.50025 26.3097 5.5H6.564L5.94412 3.334C5.73162 2.59009 5.28272 1.93557 4.66528 1.46938C4.04784 1.00319 3.29542 0.750675 2.52175 0.75H1.9375Z" fill="white"/>
<path d="M11.4375 29.25C11.9053 29.25 12.3686 29.1579 12.8008 28.9788C13.233 28.7998 13.6258 28.5374 13.9566 28.2066C14.2874 27.8758 14.5498 27.483 14.7288 27.0508C14.9079 26.6186 15 26.1553 15 25.6875C15 25.2197 14.9079 24.7564 14.7288 24.3242C14.5498 23.892 14.2874 23.4992 13.9566 23.1684C13.6258 22.8376 13.233 22.5752 12.8008 22.3962C12.3686 22.2171 11.9053 22.125 11.4375 22.125C10.4927 22.125 9.58653 22.5003 8.91843 23.1684C8.25033 23.8365 7.875 24.7427 7.875 25.6875C7.875 26.6323 8.25033 27.5385 8.91843 28.2066C9.58653 28.8747 10.4927 29.25 11.4375 29.25Z" fill="white"/>
<path d="M20.9375 29.25C21.4053 29.25 21.8686 29.1579 22.3008 28.9788C22.733 28.7998 23.1258 28.5374 23.4566 28.2066C23.7874 27.8758 24.0498 27.483 24.2288 27.0508C24.4079 26.6186 24.5 26.1553 24.5 25.6875C24.5 25.2197 24.4079 24.7564 24.2288 24.3242C24.0498 23.892 23.7874 23.4992 23.4566 23.1684C23.1258 22.8376 22.733 22.5752 22.3008 22.3962C21.8686 22.2171 21.4053 22.125 20.9375 22.125C19.9927 22.125 19.0865 22.5003 18.4184 23.1684C17.7503 23.8365 17.375 24.7427 17.375 25.6875C17.375 26.6323 17.7503 27.5385 18.4184 28.2066C19.0865 28.8747 19.9927 29.25 20.9375 29.25Z" fill="white"/>
</svg>
