<svg width="31" height="31" viewBox="0 0 31 31" fill="none" xmlns="http://www.w3.org/2000/svg">
<path d="M4.84375 3.875C4.58682 3.875 4.34042 3.97706 4.15874 4.15874C3.97706 4.34042 3.875 4.58682 3.875 4.84375C3.875 5.10068 3.97706 5.34708 4.15874 5.52876C4.34042 5.71044 4.58682 5.8125 4.84375 5.8125H5.32037C5.53073 5.81286 5.73525 5.88169 5.90303 6.00857C6.07082 6.13546 6.19274 6.31351 6.25038 6.51581L9.32325 17.2689C9.49705 17.8758 9.8637 18.4095 10.3678 18.7895C10.8718 19.1695 11.4859 19.375 12.1171 19.375H20.9696C21.5505 19.3751 22.1182 19.2011 22.5992 18.8754C23.0803 18.5497 23.4528 18.0874 23.6685 17.5479L26.5244 10.4063C26.6418 10.1124 26.6854 9.79429 26.6515 9.47966C26.6175 9.16504 26.507 8.86351 26.3296 8.60145C26.1523 8.33939 25.9134 8.12476 25.6339 7.97634C25.3544 7.82791 25.0428 7.7502 24.7264 7.75H8.618L8.11231 5.983C7.93896 5.37612 7.57275 4.84217 7.06905 4.46186C6.56534 4.08155 5.95153 3.87555 5.32037 3.875H4.84375Z" fill="#00303C"/>
<path d="M12.5938 27.125C12.9754 27.125 13.3533 27.0498 13.7059 26.9038C14.0585 26.7577 14.3789 26.5436 14.6488 26.2738C14.9186 26.0039 15.1327 25.6835 15.2788 25.3309C15.4248 24.9783 15.5 24.6004 15.5 24.2188C15.5 23.8371 15.4248 23.4592 15.2788 23.1066C15.1327 22.754 14.9186 22.4336 14.6488 22.1637C14.3789 21.8939 14.0585 21.6798 13.7059 21.5337C13.3533 21.3877 12.9754 21.3125 12.5938 21.3125C11.823 21.3125 11.0837 21.6187 10.5387 22.1637C9.99369 22.7087 9.6875 23.448 9.6875 24.2188C9.6875 24.9895 9.99369 25.7288 10.5387 26.2738C11.0837 26.8188 11.823 27.125 12.5938 27.125Z" fill="#00303C"/>
<path d="M20.3438 27.125C20.7254 27.125 21.1033 27.0498 21.4559 26.9038C21.8085 26.7577 22.1289 26.5436 22.3988 26.2738C22.6686 26.0039 22.8827 25.6835 23.0288 25.3309C23.1748 24.9783 23.25 24.6004 23.25 24.2188C23.25 23.8371 23.1748 23.4592 23.0288 23.1066C22.8827 22.754 22.6686 22.4336 22.3988 22.1637C22.1289 21.8939 21.8085 21.6798 21.4559 21.5337C21.1033 21.3877 20.7254 21.3125 20.3438 21.3125C19.573 21.3125 18.8337 21.6187 18.2887 22.1637C17.7437 22.7087 17.4375 23.448 17.4375 24.2188C17.4375 24.9895 17.7437 25.7288 18.2887 26.2738C18.8337 26.8188 19.573 27.125 20.3438 27.125Z" fill="#00303C"/>
</svg>
