<svg width="15" height="16" viewBox="0 0 15 16" fill="none" xmlns="http://www.w3.org/2000/svg">
<path fill-rule="evenodd" clip-rule="evenodd" d="M10.9336 1C10.9336 0.447715 10.4859 0 9.93359 0C9.38131 0 8.93359 0.447715 8.93359 1V1.375H5.4375V1C5.4375 0.447715 4.98978 0 4.4375 0C3.88522 0 3.4375 0.447715 3.4375 1V1.375H2.37432C1.06302 1.375 0 2.43802 0 3.74932V6.49712V13.3696C0 14.6809 1.06302 15.7439 2.37432 15.7439H11.9946C13.3059 15.7439 14.3689 14.6809 14.3689 13.3696V6.49712V3.74932C14.3689 2.43802 13.3059 1.375 11.9946 1.375H10.9336V1ZM12.3689 5.49712V3.74932C12.3689 3.54259 12.2013 3.375 11.9946 3.375H10.9336V3.74864C10.9336 4.30093 10.4859 4.74864 9.93359 4.74864C9.38131 4.74864 8.93359 4.30093 8.93359 3.74864V3.375H5.4375V3.74864C5.4375 4.30093 4.98978 4.74864 4.4375 4.74864C3.88522 4.74864 3.4375 4.30093 3.4375 3.74864V3.375H2.37432C2.16759 3.375 2 3.54259 2 3.74932V5.49712H12.3689ZM2 7.49712H12.3689V13.3696C12.3689 13.5763 12.2013 13.7439 11.9946 13.7439H2.37432C2.16759 13.7439 2 13.5763 2 13.3696V7.49712Z" fill="#00303C"/>
</svg>
