<svg width="17" height="17" viewBox="0 0 17 17" fill="none" xmlns="http://www.w3.org/2000/svg">
<path d="M8.5625 0.65625C8.5625 0.96875 8.5625 1.25 8.5625 1.5625C8.5 1.5625 8.4375 1.5625 8.375 1.5625C6.375 1.5625 4.34375 1.5625 2.34375 1.5625C1.78125 1.5625 1.3125 1.78125 1.0625 2.28125C0.96875 2.4375 0.96875 2.625 0.90625 2.78125C0.90625 2.84375 0.90625 2.90625 0.90625 2.96875C0.90625 6.5 0.90625 10.0625 0.90625 13.5938C0.90625 14.0625 1.0625 14.4688 1.4375 14.7813C1.71875 15 2.03125 15.0625 2.40625 15.0625C5.9375 15.0625 9.4375 15.0625 12.9688 15.0625C13.125 15.0625 13.25 15.0625 13.4062 15.0313C14.0625 14.875 14.4688 14.3438 14.4688 13.6563C14.4688 12.9063 14.4688 12.125 14.4688 11.375C14.4688 10.125 14.4688 8.875 14.4688 7.625C14.4688 7.5625 14.4688 7.5 14.4688 7.4375C14.7812 7.4375 15.0625 7.4375 15.375 7.4375C15.375 7.5 15.375 7.5625 15.375 7.625C15.375 9.625 15.375 11.625 15.375 13.625C15.375 14.625 14.9375 15.3438 14.0312 15.8125C13.75 15.9688 13.4375 16.0313 13.0938 16.0313C9.5 16.0313 5.90625 16.0313 2.3125 16.0313C1.03125 16 0 15 0 13.7188C0 12.9688 0 12.25 0 11.5C0 8.65625 0 5.78125 0 2.9375C0 1.84375 0.65625 0.96875 1.75 0.71875C1.9375 0.65625 2.15625 0.65625 2.375 0.65625C4.40625 0.65625 6.4375 0.65625 8.46875 0.65625C8.46875 0.65625 8.53125 0.65625 8.5625 0.65625Z" fill="#00303C"/>
<path d="M14.0924 0C15.2486 0 16.0611 0.875 15.9986 1.90625C15.9674 2.34375 15.7799 2.75 15.4674 3.0625C13.4674 5.09375 11.4674 7.0625 9.46739 9.0625C9.37364 9.15625 9.24864 9.21875 9.15489 9.25C8.34239 9.46875 7.52989 9.65625 6.68614 9.875C6.31114 9.96875 6.02989 9.6875 6.12364 9.34375C6.31114 8.5 6.52989 7.625 6.74864 6.78125C6.77989 6.6875 6.84239 6.59375 6.90489 6.53125C8.90489 4.53125 10.9049 2.53125 12.8736 0.5625C13.2486 0.1875 13.6861 0 14.0924 0ZM12.5924 2.125C12.5611 2.15625 12.5299 2.1875 12.5299 2.1875C10.9049 3.8125 9.27989 5.4375 7.68614 7.0625C7.62364 7.125 7.59239 7.1875 7.59239 7.25C7.46739 7.6875 7.37364 8.09375 7.27989 8.53125C7.24864 8.625 7.24864 8.71875 7.21739 8.84375C7.74864 8.71875 8.24864 8.59375 8.77989 8.4375C8.87364 8.40625 8.96739 8.375 9.02989 8.3125C10.6236 6.71875 12.2174 5.125 13.8111 3.53125C13.8424 3.5 13.8736 3.4375 13.9049 3.40625C13.4361 2.96875 13.0299 2.53125 12.5924 2.125ZM14.5299 2.75C14.6861 2.59375 14.8111 2.46875 14.9361 2.3125C15.1549 2.0625 15.1549 1.625 14.9986 1.34375C14.8111 1.03125 14.4674 0.875 14.1236 0.90625C13.7486 0.9375 13.4986 1.21875 13.2799 1.46875C13.6549 1.875 14.0924 2.3125 14.5299 2.75Z" fill="#00303C"/>
</svg>
