<svg width="17" height="15" viewBox="0 0 17 15" fill="none" xmlns="http://www.w3.org/2000/svg">
<path d="M8.06632 2.98579L8.45802 3.69562L8.91647 3.02696C8.99984 2.90535 9.07529 2.79073 9.14751 2.681C9.29181 2.46177 9.42326 2.26206 9.57945 2.06517C11.0551 0.222821 13.699 0.269937 15.1562 1.74583C15.6566 2.25272 16.004 2.86521 16.2289 3.56818C16.4485 4.25531 16.5452 4.9417 16.4799 5.63602L16.4799 5.63682C16.4306 6.16951 16.2374 6.67819 15.9685 7.20813L15.9683 7.20865C15.4976 8.13921 14.8332 8.94179 14.0968 9.73925L14.0967 9.73934C13.1649 10.7489 12.1223 11.6498 11.0203 12.4908C10.3905 12.9708 9.74275 13.4194 9.08392 13.8758C8.89506 14.0066 8.70529 14.138 8.51476 14.271C6.41267 12.8801 4.43888 11.3543 2.72831 9.51692L2.72823 9.51683C1.99423 8.72877 1.36178 7.88664 0.902255 6.93291C0.508561 6.10767 0.410076 5.25291 0.579489 4.34513L0.579602 4.34452C0.726607 3.55136 0.999204 2.8353 1.45912 2.21327L1.45913 2.21327L1.46045 2.21147C2.07919 1.36678 2.88886 0.874196 3.91126 0.713739C4.81428 0.573743 5.64243 0.714083 6.40895 1.18795C7.11683 1.62583 7.65495 2.24033 8.06632 2.98579Z" stroke="#00303C"/>
</svg>
