<svg width="11" height="11" viewBox="0 0 11 11" fill="none" xmlns="http://www.w3.org/2000/svg">
<path fill-rule="evenodd" clip-rule="evenodd" d="M4.96805 3.90192C4.97565 4.30456 5.30991 4.63122 5.71254 4.61603C6.09239 4.60083 6.40386 4.26657 6.39626 3.88673C6.38107 3.4765 6.062 3.16503 5.65936 3.18022C5.27192 3.18782 4.96045 3.52208 4.96805 3.90192ZM6.51082 8.25487C6.57919 8.19409 6.63997 8.11053 6.68555 8.02696C6.70834 7.99658 6.70074 7.92061 6.67036 7.89782C6.63997 7.86743 6.57919 7.85983 6.53361 7.86743C6.49888 7.87611 6.46415 7.89472 6.42943 7.91332C6.40338 7.92727 6.37733 7.94123 6.35129 7.95099C6.24493 7.98898 6.13857 8.01937 6.02462 8.04216C5.94865 8.05735 5.88028 8.00417 5.85749 7.9282C5.8347 7.83704 5.81191 7.73068 5.8271 7.63193C5.93346 7.00139 6.04741 6.36325 6.16137 5.73271C6.19175 5.55038 6.21454 5.37566 6.22974 5.19333C6.24493 5.05659 6.16896 4.98062 6.03222 4.95783C5.99424 4.95023 5.96385 4.95023 5.92586 4.95023H5.92586H5.24974H4.56602C4.52044 4.95023 4.47486 4.95783 4.42928 4.96542L4.42928 4.96542C4.33052 4.98821 4.27734 5.04139 4.27734 5.12496C4.27734 5.20093 4.33052 5.2617 4.42168 5.28449C4.49765 5.29969 4.57362 5.31488 4.64959 5.32248C4.84711 5.35286 4.91548 5.44403 4.88509 5.64155C4.8566 5.81627 4.82859 5.991 4.80058 6.16573C4.71654 6.68992 4.6325 7.2141 4.53564 7.73828C4.45967 8.1865 4.88509 8.55874 5.18897 8.57394C5.25734 8.57774 5.32571 8.57964 5.39408 8.58153C5.46245 8.58343 5.53083 8.58533 5.5992 8.58913C5.94865 8.60432 6.25253 8.49037 6.51082 8.25487Z" fill="#C6C6C6"/>
<circle cx="5.5" cy="5.5" r="5.25" stroke="#DEDEDE" stroke-width="0.5"/>
</svg>
