<svg width="22" height="19" viewBox="0 0 22 19" fill="none" xmlns="http://www.w3.org/2000/svg">
<path d="M11.0061 3.34558C11.3 2.91683 11.5705 2.46823 11.8919 2.0633C14.0594 -0.64418 17.9357 -0.568752 20.0757 1.59882C20.8048 2.33723 21.3025 3.22252 21.62 4.215C21.9257 5.17175 22.0668 6.14834 21.9728 7.14876C21.8983 7.95466 21.6083 8.69703 21.2437 9.41558C20.5931 10.7018 19.6838 11.7936 18.7196 12.8377C17.4811 14.1795 16.1014 15.3705 14.6551 16.4741C13.5145 17.3435 12.3191 18.1415 11.1433 18.9672C11.0923 19.0029 10.9747 19.0109 10.9238 18.9751C8.08215 17.1132 5.38947 15.0568 3.05738 12.5518C2.07751 11.4998 1.21523 10.3565 0.584194 9.04638C0.0119511 7.84747 -0.12915 6.60091 0.113857 5.29878C0.31767 4.19912 0.701779 3.17488 1.36809 2.27371C2.26957 1.04303 3.46893 0.31257 4.96225 0.0783446C6.26743 -0.124121 7.49815 0.0783446 8.6348 0.78102C9.6617 1.41621 10.4299 2.3015 11.0061 3.34558Z" fill="#00303C"/>
</svg>
