<svg width="13" height="16" viewBox="0 0 13 16" fill="none" xmlns="http://www.w3.org/2000/svg">
<path d="M6.18751 0C4.54707 0.00193526 2.97438 0.654452 1.81442 1.81441C0.654459 2.97438 0.00194185 4.54707 6.58287e-06 6.1875C-0.00195817 7.52806 0.435933 8.83225 1.24651 9.9C1.24651 9.9 1.41526 10.1222 1.44282 10.1543L6.18751 15.75L10.9344 10.1514C10.9592 10.1216 11.1285 9.9 11.1285 9.9L11.1291 9.89831C11.9392 8.83103 12.3769 7.52745 12.375 6.1875C12.3731 4.54707 11.7206 2.97438 10.5606 1.81441C9.40063 0.654452 7.82794 0.00193526 6.18751 0ZM6.18751 8.4375C5.7425 8.4375 5.30748 8.30554 4.93747 8.05831C4.56746 7.81107 4.27907 7.45967 4.10878 7.04854C3.93848 6.6374 3.89392 6.185 3.98074 5.74855C4.06756 5.31209 4.28185 4.91118 4.59652 4.59651C4.91118 4.28184 5.3121 4.06755 5.74855 3.98073C6.18501 3.89392 6.63741 3.93847 7.04854 4.10877C7.45968 4.27907 7.81108 4.56746 8.05831 4.93747C8.30555 5.30748 8.43751 5.74249 8.43751 6.1875C8.43676 6.78401 8.19947 7.35587 7.77767 7.77767C7.35588 8.19946 6.78402 8.43676 6.18751 8.4375Z" fill="white"/>
</svg>
