<svg width="9" height="13" viewBox="0 0 9 13" fill="none" xmlns="http://www.w3.org/2000/svg">
<path d="M1.53443 5.2444C1.53443 5.1556 1.53443 5.126 1.53443 5.06679C1.53443 4.32676 1.53443 3.58672 1.53443 2.84668C1.56393 1.60342 2.47869 0.448956 3.68852 0.12334C4.78033 -0.172676 5.7541 0.0641367 6.55082 0.833776C7.14098 1.3666 7.46557 2.07704 7.46557 2.87628C7.49508 3.61632 7.46557 4.35636 7.46557 5.09639C7.46557 5.1556 7.46557 5.2148 7.46557 5.3036C7.61311 5.3036 7.76066 5.3036 7.9377 5.3036C8.52787 5.33321 8.97049 5.80683 9 6.36926C9 6.42846 9 6.45806 9 6.51727C9 8.26376 9 10.0398 9 11.7863C9 12.2896 8.79344 12.6744 8.35082 12.8816C8.17377 12.9704 7.99672 13 7.81967 13C5.60656 13 3.42295 13 1.20984 13C0.501639 13 0 12.4968 0 11.7863C0 10.0102 0 8.23416 0 6.48767C0 5.89564 0.32459 5.45161 0.885246 5.3036C1.00328 5.274 1.12131 5.274 1.23934 5.274C1.35738 5.2444 1.4459 5.2444 1.53443 5.2444ZM6.43279 5.2148C6.43279 5.1852 6.43279 5.1852 6.43279 5.1852C6.43279 4.38596 6.46229 3.61632 6.43279 2.81708C6.37377 1.63302 5.19344 0.774573 4.04262 1.07059C3.18689 1.2778 2.56721 2.07704 2.56721 2.99469C2.56721 3.70512 2.56721 4.41556 2.56721 5.09639C2.56721 5.126 2.56721 5.1852 2.56721 5.2148C3.86557 5.2148 5.16393 5.2148 6.43279 5.2148ZM3.92459 9.80304C3.92459 10.0102 3.92459 10.2175 3.92459 10.4247V10.4543C3.9541 10.5727 3.98361 10.7207 4.04262 10.8095C4.16066 11.0167 4.45574 11.1055 4.6918 11.0463C4.95738 10.9575 5.10492 10.7503 5.10492 10.4839C5.10492 10.0991 5.10492 9.71423 5.10492 9.32941C5.10492 9.1518 5.13443 9.00379 5.28197 8.85579C5.63607 8.50057 5.66557 7.90854 5.34098 7.52372C5.01639 7.1093 4.45574 6.99089 4.01311 7.2277C3.33443 7.58292 3.2459 8.44137 3.80656 8.97419C3.86557 9.0334 3.89508 9.0926 3.89508 9.1814C3.92459 9.38861 3.92459 9.59583 3.92459 9.80304Z" fill="#DEDEDE"/>
</svg>
