<svg width="193" height="53" viewBox="0 0 193 53" fill="none" xmlns="http://www.w3.org/2000/svg">
<g clip-path="url(#clip0_1456_9)">
<path d="M0.121094 52.7237H0.980235V50.0882H3.8645V49.3855H0.980235V47.5114H4.0486V46.8086H0.121094V52.7237Z" fill="#00303C"/>
<path d="M17.2461 50.4396C17.2461 50.9667 17.1233 51.3766 16.8165 51.6695C16.571 51.9623 16.1414 52.0794 15.5891 52.0794C15.0368 52.0794 14.6686 51.9623 14.3618 51.6695C14.1163 51.3766 13.9322 50.9667 13.9322 50.4396V46.8086H13.0117V50.381C13.0117 51.2009 13.2572 51.7866 13.6254 52.1965C14.055 52.6065 14.6686 52.7822 15.5278 52.7822C16.3255 52.7822 17.0006 52.5479 17.4302 52.138C17.8597 51.728 18.1052 51.1424 18.1052 50.3225V46.75H17.1847V50.4396H17.2461Z" fill="#00303C"/>
<path d="M28.2305 47.5114H30.317V52.7237H31.2375V47.5114H33.3239V46.8086H28.2305V47.5114Z" fill="#00303C"/>
<path d="M46.6406 50.4396C46.6406 50.9667 46.5179 51.3766 46.211 51.6695C45.9656 51.9623 45.536 52.0794 44.9837 52.0794C44.4314 52.0794 44.0632 51.9623 43.7563 51.6695C43.5109 51.3766 43.3268 50.9667 43.3268 50.4396V46.8086H42.4062V50.381C42.4062 51.2009 42.5904 51.7866 43.0199 52.1965C43.4495 52.6065 44.0632 52.7822 44.9223 52.7822C45.7201 52.7822 46.3951 52.5479 46.8247 52.138C47.2543 51.728 47.4997 51.1424 47.4997 50.3225V46.75H46.6406V50.4396Z" fill="#00303C"/>
<path d="M60.5075 50.2054C60.9984 50.1468 61.3666 49.9711 61.6735 49.6783C61.9189 49.3855 62.103 49.0341 62.103 48.5656C62.103 47.9799 61.919 47.57 61.5507 47.2771C61.1825 46.9843 60.6916 46.8672 59.9552 46.8672H57.3164V52.7822H58.2369V50.3225H59.2802C59.5256 50.3225 59.7711 50.3811 59.8938 50.4397C60.0779 50.4982 60.2007 50.6739 60.3234 50.8496L61.3666 52.7237H62.3485L61.3053 50.8496C61.0598 50.4982 60.8143 50.264 60.5075 50.2054ZM59.8325 49.5612H58.1755V47.4528H59.8325C60.3234 47.4528 60.6302 47.5114 60.8757 47.6871C61.1212 47.8628 61.1825 48.0971 61.1825 48.4484C61.1825 48.7998 61.0598 49.0927 60.8757 49.2684C60.6302 49.5026 60.3234 49.5612 59.8325 49.5612Z" fill="#00303C"/>
<path d="M71.7383 52.7237H75.7885V52.0209H72.6588V50.0882H75.6044V49.3855H72.6588V47.5114H75.7885V46.8086H71.7383V52.7237Z" fill="#00303C"/>
<path d="M98.0039 52.7237H98.863V50.0882H101.747V49.3855H98.863V47.5114H101.931V46.8086H98.0039V52.7237Z" fill="#00303C"/>
<path d="M115.372 47.1014C114.942 46.8671 114.451 46.75 113.837 46.75C113.224 46.75 112.733 46.8671 112.303 47.1014C111.874 47.3357 111.505 47.687 111.321 48.1556C111.076 48.6241 110.953 49.1512 110.953 49.7954C110.953 50.4396 111.076 50.9667 111.321 51.3766C111.567 51.8452 111.874 52.1966 112.303 52.4308C112.733 52.6651 113.224 52.7822 113.837 52.7822C114.451 52.7822 114.942 52.6651 115.372 52.4308C115.801 52.1966 116.169 51.8452 116.353 51.3766C116.599 50.9081 116.722 50.381 116.722 49.7954C116.722 49.1512 116.599 48.6241 116.353 48.1556C116.169 47.687 115.801 47.3357 115.372 47.1014ZM115.31 51.4938C114.942 51.9037 114.451 52.0794 113.837 52.0794C113.224 52.0794 112.733 51.9037 112.426 51.4938C112.058 51.0838 111.935 50.4982 111.935 49.7954C111.935 49.034 112.119 48.4484 112.426 48.097C112.794 47.687 113.224 47.5113 113.837 47.5113C114.451 47.5113 114.942 47.687 115.31 48.097C115.678 48.507 115.801 49.0926 115.801 49.7954C115.801 50.4982 115.678 51.0838 115.31 51.4938Z" fill="#00303C"/>
<path d="M129.547 50.2054C130.038 50.1468 130.406 49.9711 130.713 49.6783C131.019 49.3855 131.142 49.0341 131.142 48.5656C131.142 47.9799 130.958 47.57 130.59 47.2771C130.222 46.9843 129.731 46.8672 128.994 46.8672H126.355V52.7822H127.276V50.3225H128.319C128.565 50.3225 128.81 50.3811 128.933 50.4397C129.117 50.4982 129.24 50.6739 129.362 50.8496L130.406 52.7237H131.388L130.344 50.8496C130.099 50.4982 129.853 50.264 129.547 50.2054ZM128.872 49.5612H127.215V47.4528H128.872C129.362 47.4528 129.669 47.5114 129.915 47.6871C130.16 47.8628 130.222 48.0971 130.222 48.4484C130.222 48.7998 130.099 49.0927 129.915 49.2684C129.669 49.5026 129.362 49.5612 128.872 49.5612Z" fill="#00303C"/>
<path d="M146.912 51.5524L145.193 46.8086H144.518L142.8 51.4938L141.143 46.8086H140.223L142.432 52.7237H143.168L144.887 48.1556L146.543 52.7237H147.28L149.489 46.8086H148.569L146.912 51.5524Z" fill="#00303C"/>
<path d="M160.351 46.8086L157.59 52.7237H158.51L159.185 51.2595H162.315L162.99 52.7237H163.911L161.149 46.8086H160.351ZM159.492 50.5568L160.781 47.7456L162.07 50.5568H159.492Z" fill="#00303C"/>
<path d="M176.307 50.2054C176.798 50.1468 177.166 49.9711 177.473 49.6783C177.719 49.3855 177.903 49.0341 177.903 48.5656C177.903 47.9799 177.719 47.57 177.35 47.2771C176.982 46.9843 176.491 46.8672 175.755 46.8672H173.055V52.7822H173.975V50.3225H175.018C175.264 50.3225 175.509 50.3811 175.632 50.4397C175.816 50.4982 175.939 50.6739 176.062 50.8496L177.105 52.7237H178.087L177.044 50.8496C176.859 50.4982 176.614 50.264 176.307 50.2054ZM175.632 49.5612H173.975V47.4528H175.632C176.123 47.4528 176.43 47.5114 176.675 47.6871C176.921 47.8628 176.982 48.0971 176.982 48.4484C176.982 48.7998 176.859 49.0927 176.675 49.2684C176.43 49.5026 176.062 49.5612 175.632 49.5612Z" fill="#00303C"/>
<path d="M189.687 46.8086H187.539V52.7237H189.687C190.669 52.7237 191.467 52.4894 192.019 51.9623C192.571 51.4352 192.817 50.7325 192.817 49.7954C192.817 48.8584 192.571 48.097 192.019 47.6285C191.467 47.0429 190.73 46.8086 189.687 46.8086ZM189.687 52.0209H188.46V47.5114H189.687C191.221 47.5114 191.957 48.2727 191.957 49.7368C191.957 51.2595 191.16 52.0209 189.687 52.0209Z" fill="#00303C"/>
<path d="M111.567 31.699L85.9159 9.32715H82.418V35.9742H85.6704V13.6024L111.445 35.9742H115.188V9.32715H111.567V31.699Z" fill="#00303C"/>
<path d="M73.8248 9.32715H41.0547V12.4311H73.8248V9.32715Z" fill="#00303C"/>
<path d="M73.8248 21.04H41.0547V24.144H73.8248V21.04Z" fill="#00303C"/>
<path d="M73.8248 32.8115H41.0547V35.9155H73.8248V32.8115Z" fill="#00303C"/>
<path d="M137.77 35.9742H151.394L151.517 33.1631H131.02C130.897 28.2437 134.641 28.2437 139.243 26.0768C141.146 25.2569 148.51 22.27 149.798 21.1573C151.701 19.5761 151.885 16.9992 151.517 14.3638C151.148 11.7283 148.264 7.39453 139.55 7.39453C133.781 7.39453 127.89 9.03435 127.583 14.7152C127.583 15.0665 127.583 17.7605 127.583 18.1119H131.143C131.143 17.8191 131.143 15.1251 131.143 14.8323C131.449 10.967 135.929 10.4985 139.611 10.4399C144.153 10.3813 147.835 12.0212 148.08 15.4179C148.141 16.2378 148.264 18.2291 146.975 19.1661C142.741 22.3286 134.027 23.9684 129.731 27.0138C126.847 28.9464 127.645 32.9874 127.522 35.9157H137.77" fill="#B6A999"/>
<path d="M191.713 14.1295C190.792 12.0797 189.442 10.4399 187.54 9.21005C185.637 7.98018 183.244 7.39453 180.298 7.39453C177.353 7.39453 174.898 7.98018 172.996 9.21005C171.093 10.4399 169.682 12.0797 168.823 14.1295C167.964 16.1793 167.473 18.5219 167.473 21.0987V23.1485C167.473 24.964 167.718 26.721 168.148 28.3608C168.577 30.0006 169.314 31.4647 170.357 32.6946C171.339 33.9245 172.689 34.9201 174.346 35.6814C176.003 36.3842 177.966 36.7941 180.298 36.7941C182.63 36.7941 184.594 36.4428 186.251 35.6814C187.847 34.9786 189.197 33.983 190.179 32.6946C191.16 31.4647 191.897 30.0006 192.388 28.3608C192.817 26.721 193.063 24.964 193.063 23.1485V21.0987C193.001 18.5219 192.572 16.1793 191.713 14.1295ZM187.049 31.0548C185.637 32.9289 183.367 33.8659 180.298 33.8659C177.23 33.8659 174.959 32.9289 173.487 31.0548C172.014 29.1807 171.339 26.1939 171.339 22.1529C171.339 17.9948 172.075 14.9494 173.548 13.1339C175.021 11.3184 177.291 10.3813 180.298 10.3813C183.305 10.3813 185.576 11.3184 187.049 13.1339C188.522 14.9494 189.258 17.9948 189.258 22.2115C189.197 26.1939 188.46 29.1807 187.049 31.0548Z" fill="#B6A999"/>
<path d="M163.422 31.2886H158.758V35.9738H163.422V31.2886Z" fill="#B6A999"/>
<path d="M15.6486 24.554L18.2874 22.3286L28.5971 13.7781V35.9157H31.8496V9.32715H28.5971L15.6486 20.1031L2.63879 9.32715L0 11.4941L13.0099 22.3286H12.9485L15.6486 24.554Z" fill="#00303C"/>
<path d="M30.1913 5.6852C31.48 5.6852 32.5233 4.68959 32.5233 3.45973V3.22547C32.5233 1.9956 31.48 1 30.1913 1C28.9026 1 27.8594 1.9956 27.8594 3.22547V3.45973C27.8594 4.68959 28.9026 5.6852 30.1913 5.6852Z" fill="#00303C"/>
</g>
<defs>
<clipPath id="clip0_1456_9">
<rect width="193" height="51.83" fill="white" transform="translate(0 0.952148)"/>
</clipPath>
</defs>
</svg>
