<svg width="36" height="41" viewBox="0 0 36 41" fill="none" xmlns="http://www.w3.org/2000/svg">
<path d="M19.596 28.1813C19.7268 28.1058 19.8215 28.0511 19.9208 27.9939C23.6103 25.8637 27.2999 23.7335 30.994 21.6007C31.3503 21.395 31.4045 21.4057 31.607 21.7564C32.9388 24.063 34.2731 26.3741 35.6048 28.6808C35.8021 29.0225 35.783 29.0935 35.4357 29.294C29.1977 32.8955 22.9597 36.497 16.7172 40.1011C16.3654 40.3043 16.3015 40.2872 16.1042 39.9455C10.9667 31.0472 5.82928 22.1489 0.694425 13.255C0.281664 12.5401 0.457537 11.8031 1.17662 11.3819C2.96208 10.3391 4.74822 9.30786 6.54407 8.28302C7.22775 7.89429 7.94359 8.09251 8.37877 8.75252C8.43001 8.83085 8.47482 8.91889 8.52155 8.99982C12.1481 15.2813 15.7721 21.5582 19.3987 27.8396C19.4558 27.9385 19.5155 28.042 19.596 28.1813ZM8.94504 26.483C9.22017 26.3242 9.47987 26.1802 9.72986 26.0299C9.90317 25.9238 10.0837 25.8616 10.1967 26.0781C10.3038 26.2741 10.1641 26.3967 10.0018 26.4904C9.73755 26.637 9.48305 26.7899 9.22144 26.9409C9.3149 27.1028 9.39278 27.2377 9.47845 27.3861C9.75358 27.2272 10.0152 27.0762 10.2768 26.9252C10.4482 26.8262 10.6185 26.7878 10.7256 26.9838C10.832 27.1681 10.713 27.2848 10.548 27.3741C10.2793 27.5232 10.0113 27.684 9.74064 27.8402C9.8341 28.0021 9.90938 28.1325 9.99764 28.2854C10.0924 28.2307 10.1735 28.1838 10.2502 28.1395C10.8817 27.7749 11.5132 27.4104 12.1446 27.0458C12.3115 26.9494 12.4785 26.895 12.5973 27.0902C12.7186 27.2899 12.5782 27.401 12.4113 27.4973C11.7682 27.8626 11.1349 28.2343 10.4944 28.6041C10.4132 28.6509 10.3365 28.6952 10.2643 28.7369C10.363 28.9077 10.4435 29.0471 10.5317 29.2C10.8069 29.0412 11.0595 28.8953 11.3166 28.7469C11.4834 28.6505 11.655 28.5935 11.7692 28.7913C11.8834 28.9892 11.7482 29.1092 11.5813 29.2055C11.3171 29.3521 11.0581 29.5076 10.7875 29.6638C10.8784 29.8212 10.9536 29.9516 11.0445 30.109C11.3196 29.9501 11.5767 29.8017 11.8383 29.6507C12.0052 29.5543 12.1794 29.5017 12.2891 29.7022C12.3988 29.9026 12.261 30.0181 12.0941 30.1145C11.8299 30.261 11.5754 30.414 11.3093 30.5676C11.4079 30.7385 11.4858 30.8734 11.5767 31.0307C11.8699 30.8615 12.145 30.7026 12.4246 30.5412C12.5735 30.4552 12.7181 30.4557 12.8109 30.606C12.9088 30.7652 12.8447 30.9042 12.6823 30.9979C12.3982 31.162 12.1185 31.3234 11.8389 31.4849C11.9349 31.6512 12.0102 31.7816 12.0959 31.93C12.3665 31.7738 12.6191 31.6279 12.8717 31.4821C12.9393 31.4431 13.0218 31.3775 13.0786 31.3926C13.1755 31.4146 13.3287 31.482 13.3373 31.549C13.3505 31.6553 13.2994 31.8167 13.2163 31.8707C12.9406 32.0598 12.6441 32.213 12.351 32.3823C12.447 32.5486 12.5223 32.679 12.6106 32.8319C12.7053 32.7772 12.7865 32.7303 12.8677 32.6835C13.5081 32.3137 14.1467 31.951 14.7872 31.5812C14.9496 31.4875 15.1063 31.4569 15.2128 31.6413C15.3192 31.8256 15.2118 31.9416 15.0494 32.0353C14.4018 32.4032 13.7549 32.7827 13.1099 33.1551C13.0287 33.202 12.952 33.2463 12.8754 33.2905C12.9714 33.4569 13.0467 33.5873 13.135 33.7402C13.392 33.5917 13.6427 33.453 13.8882 33.3053C14.0615 33.1992 14.2516 33.1014 14.3795 33.3334C14.497 33.5473 14.3334 33.6597 14.1594 33.7542C13.9042 33.8955 13.6542 34.0459 13.4017 34.1917C13.4977 34.3581 13.5756 34.493 13.6613 34.6413C13.9364 34.4825 14.1916 34.3411 14.4461 34.1882C14.6104 34.0874 14.7845 34.0348 14.8961 34.2281C15.0123 34.4189 14.8894 34.5498 14.718 34.6487C14.4538 34.7953 14.1948 34.9508 13.9286 35.1045C14.0221 35.2663 14.1 35.4012 14.1856 35.5496C14.4518 35.396 14.6979 35.2598 14.9434 35.1121C15.1122 35.0087 15.2921 34.9348 15.4205 35.1364C15.5496 35.3496 15.3931 35.464 15.2191 35.5584C14.9639 35.6998 14.7094 35.8527 14.4478 36.0037C14.5387 36.1611 14.6192 36.3005 14.7048 36.4489C14.9845 36.2874 15.2461 36.1364 15.5077 35.9853C15.6791 35.8864 15.8501 35.8596 15.9546 36.0511C16.052 36.2406 15.9278 36.3483 15.7654 36.4421C15.4967 36.5912 15.2332 36.7494 14.967 36.903C15.4317 37.7079 15.873 38.4722 16.3299 39.2636C16.3536 39.19 16.3722 39.1493 16.3817 39.1138C17.3148 35.6674 18.2407 32.2192 19.1666 28.771C19.1934 28.6716 19.1711 28.5286 19.1165 28.4342C15.4088 22.0018 11.6965 15.572 7.98428 9.14215C7.67536 8.60708 7.25157 8.49804 6.71482 8.80793C5.86686 9.2975 5.01438 9.78968 4.16641 10.2793C3.26432 10.8001 2.35963 11.3164 1.46013 11.8417C1.00266 12.1118 0.883278 12.5405 1.13837 12.9927C1.30779 13.2966 1.48363 13.5907 1.65756 13.892C1.82111 14.1753 1.98206 14.454 2.15599 14.7553C2.26875 14.6902 2.34994 14.6433 2.43113 14.5964C3.05617 14.2416 3.68572 13.8841 4.31076 13.5292C4.48216 13.4303 4.65683 13.3474 4.77953 13.5703C4.89252 13.7869 4.73342 13.8967 4.56202 13.9957C4.12191 14.2438 3.6915 14.4983 3.25398 14.7509C2.98336 14.9071 2.71724 15.0608 2.44661 15.217C2.54007 15.3789 2.61795 15.5138 2.70361 15.6621C3.0013 15.4903 3.27385 15.3269 3.55158 15.1726C3.73009 15.0755 3.94068 15.1278 3.95022 15.2901C3.95444 15.4016 3.88458 15.5618 3.79505 15.6255C3.52838 15.8095 3.23644 15.96 2.96581 16.1163C3.06445 16.2871 3.13974 16.4175 3.22541 16.5659C3.52761 16.3914 3.80657 16.2184 4.10112 16.0723C4.18039 16.0325 4.32375 16.0517 4.40329 16.0957C4.45891 16.1295 4.49742 16.2692 4.47377 16.3428C4.44628 16.4306 4.36263 16.5148 4.27693 16.5643C4.01601 16.727 3.74278 16.8787 3.48117 17.0298C3.57723 17.1961 3.65251 17.3265 3.74077 17.4794C4.00689 17.3257 4.26207 17.1844 4.51657 17.0315C4.68989 16.9254 4.86784 16.8587 4.98534 17.0726C5.09246 17.2685 4.95727 17.3886 4.78779 17.4804C4.52358 17.6269 4.26457 17.7825 4.00748 17.9309C4.10353 18.0973 4.18141 18.2322 4.26708 18.3806C4.54672 18.2191 4.81093 18.0726 5.07445 17.9144C5.23423 17.8162 5.3981 17.7875 5.50194 17.9674C5.60578 18.1472 5.51064 18.2741 5.34115 18.3659C5.06793 18.5177 4.80441 18.6758 4.52476 18.8373C4.61562 18.9947 4.69609 19.1341 4.78695 19.2914C4.88167 19.2367 4.96286 19.1899 5.04405 19.143C5.67552 18.7784 6.30698 18.4138 6.93845 18.0493C7.10533 17.9529 7.27235 17.8984 7.39109 18.0937C7.51241 18.2934 7.37204 18.4044 7.20515 18.5008C6.56207 18.8661 5.92869 19.2378 5.2882 19.6075C5.20701 19.6544 5.13034 19.6987 5.05366 19.743C5.14971 19.9093 5.22499 20.0397 5.31066 20.1881C5.5858 20.0292 5.84741 19.8782 6.10901 19.7272C6.28041 19.6282 6.4533 19.5943 6.55591 19.7929C6.65783 19.9798 6.53167 20.0947 6.37121 20.1813C6.10249 20.3304 5.83446 20.4912 5.57285 20.6422C5.6715 20.8131 5.75198 20.9525 5.84024 21.1054C6.11538 20.9465 6.36797 20.8007 6.62506 20.6522C6.79195 20.5559 6.96348 20.4988 7.0751 20.6922C7.18933 20.89 7.05865 21.0074 6.89177 21.1038C6.62756 21.2503 6.36855 21.4058 6.09792 21.5621C6.18878 21.7195 6.26407 21.8499 6.35493 22.0072C6.63458 21.8458 6.9052 21.6895 7.17132 21.5359C7.3337 21.4421 7.49757 21.4135 7.5969 21.5959C7.70074 21.7758 7.58687 21.9015 7.42449 21.9952C7.15578 22.1444 6.88775 22.3051 6.61712 22.4614C6.71317 22.6277 6.79365 22.7671 6.88451 22.9245C7.17769 22.7552 7.45283 22.5964 7.73248 22.4349C7.88132 22.349 8.02592 22.3494 8.11869 22.4997C8.21666 22.659 8.15254 22.7979 7.99016 22.8917C7.706 23.0557 7.42635 23.2172 7.1467 23.3786C7.24275 23.545 7.31804 23.6754 7.4037 23.8238C7.49842 23.7691 7.57961 23.7222 7.6608 23.6753C8.29227 23.3108 8.92373 22.9462 9.5552 22.5816C9.72208 22.4853 9.88842 22.4192 10.0033 22.6286C10.113 22.8291 9.98236 22.9465 9.81288 23.0383C9.1698 23.4036 8.53642 23.7753 7.89593 24.1451C7.81925 24.1894 7.73807 24.2362 7.67041 24.2753C7.76906 24.4462 7.84434 24.5766 7.92741 24.7204C8.20706 24.559 8.47126 24.4124 8.73027 24.2569C8.89908 24.1535 9.06746 24.1222 9.17266 24.3252C9.26748 24.5103 9.16263 24.6308 8.99766 24.72C8.72895 24.8692 8.46091 25.0299 8.1948 25.1836C8.28825 25.3454 8.36873 25.4848 8.4544 25.6332C8.72502 25.477 8.98472 25.333 9.23471 25.1827C9.399 25.0818 9.57312 25.0293 9.68475 25.2226C9.80089 25.4134 9.67541 25.5398 9.50141 25.6342C9.2327 25.7834 8.96918 25.9415 8.69855 26.0978C8.78149 26.1998 8.85418 26.3256 8.94504 26.483ZM31.1814 22.092C31.0912 22.1441 31.0235 22.1832 30.9604 22.2196C27.2753 24.3472 23.5948 26.4722 19.9123 28.6042C19.7996 28.6693 19.698 28.8059 19.6609 28.9292C18.7349 32.3356 17.8204 35.7412 16.9034 39.1423C16.8843 39.2133 16.8722 39.2862 16.8499 39.383C22.9436 35.8649 29.0101 32.3623 35.0812 28.8572C33.7852 26.6019 32.4924 24.3627 31.1814 22.092Z" fill="black"/>
<path d="M5.80058 11.1219C6.09393 11.63 5.93188 12.2452 5.42479 12.5439C4.92222 12.8401 4.27293 12.6634 3.9841 12.1527C3.70824 11.6645 3.8908 11.0015 4.38053 10.7248C4.88187 10.4473 5.51243 10.6228 5.80058 11.1219ZM5.33983 11.376C5.19254 11.1313 4.88956 11.0544 4.64149 11.1976C4.38439 11.3461 4.29824 11.6656 4.45263 11.9122C4.59473 12.1479 4.91644 12.2259 5.15549 12.0879C5.41067 11.9466 5.48972 11.6252 5.33983 11.376Z" fill="black"/>
<path d="M27.2426 32.5009C25.1407 33.7144 23.0343 34.9305 20.9324 36.144C20.8738 36.1779 20.8139 36.2305 20.7494 36.2437C20.6249 36.2676 20.4488 36.3273 20.3776 36.2665C20.2993 36.2038 20.2742 36.0145 20.3049 35.9008C20.9851 33.3499 21.6769 30.7982 22.3758 28.2484C22.409 28.1393 22.4996 28.015 22.5989 27.9577C25.262 26.4142 27.9322 24.8726 30.5979 23.3335C30.8324 23.1981 30.939 23.2265 31.0818 23.4738C32.0033 25.07 32.9249 26.6662 33.8439 28.2579C34.0023 28.5322 33.9741 28.6084 33.6674 28.7855C31.8587 29.8298 30.0455 30.8766 28.2368 31.9209C27.9056 32.1181 27.5718 32.3108 27.2426 32.5009ZM30.7048 23.8833C30.639 23.9153 30.5958 23.9342 30.5507 23.9603C28.0384 25.4107 25.5306 26.8586 23.0209 28.3136C22.9261 28.3683 22.8381 28.4971 22.8075 28.6107C22.205 30.817 21.6095 33.0253 21.0141 35.2336C20.995 35.3046 20.983 35.3775 20.9639 35.4904C25.0955 33.105 29.191 30.7404 33.2911 28.3733C32.4311 26.8734 31.577 25.3941 30.7048 23.8833Z" fill="black"/>
<path d="M19.6749 35.6718C19.8956 36.054 19.7628 36.5324 19.3787 36.7421C19.0037 36.9467 18.5295 36.8128 18.3192 36.4486C18.1037 36.0754 18.2403 35.5828 18.6244 35.3731C18.9995 35.1685 19.4595 35.2986 19.6749 35.6718ZM19.0851 36.3481C19.1167 36.3299 19.1528 36.309 19.1843 36.2908C19.1962 36.176 19.2449 36.052 19.2136 35.9561C19.1647 35.7985 19.0013 35.755 18.8789 35.8556C18.801 35.9186 18.7416 36.0968 18.7812 36.1758C18.8208 36.2549 18.9791 36.2894 19.0851 36.3481Z" fill="black"/>
<path d="M20.2471 29.3099C20.6124 29.099 21.0957 29.2277 21.3105 29.5893C21.5304 29.9599 21.3938 30.4524 21.0169 30.6641C20.6309 30.8809 20.1664 30.7534 19.9495 30.357C19.7412 29.9857 19.8727 29.5261 20.2471 29.3099ZM20.5452 29.7014C20.5091 29.7222 20.475 29.7359 20.4389 29.7568C20.4296 29.876 20.3752 30.0214 20.4245 30.1068C20.4686 30.1832 20.6799 30.2471 20.7288 30.2069C20.8113 30.1413 20.8804 29.9695 20.8472 29.8807C20.8211 29.7938 20.6558 29.7574 20.5452 29.7014Z" fill="black"/>
</svg>
